<svg width="42" height="42" viewBox="0 0 42 42" fill="none" xmlns="http://www.w3.org/2000/svg">
<path fill-rule="evenodd" clip-rule="evenodd" d="M0 6.23675V18.8217H18.5426V0.279053H5.9577L0 6.23675Z" fill="white"/>
<path fill-rule="evenodd" clip-rule="evenodd" d="M0 41.9994V29.4145L5.95769 23.4568H18.5426V36.569L13.1122 41.9994H0Z" fill="white"/>
<mask id="path-3-inside-1_216_974" fill="white">
<path fill-rule="evenodd" clip-rule="evenodd" d="M23.1777 18.8217V6.23674L29.1354 0.279053H41.7204V13.3913L36.29 18.8217H23.1777Z"/>
</mask>
<path d="M23.1777 6.23674L21.0564 4.11542L20.1777 4.9941V6.23674H23.1777ZM23.1777 18.8217H20.1777V21.8217H23.1777V18.8217ZM29.1354 0.279053V-2.72095H27.8928L27.0141 -1.84227L29.1354 0.279053ZM41.7204 0.279053H44.7204V-2.72095H41.7204V0.279053ZM41.7204 13.3913L43.8417 15.5126L44.7204 14.6339V13.3913H41.7204ZM36.29 18.8217V21.8217H37.5326L38.4113 20.943L36.29 18.8217ZM20.1777 6.23674V18.8217H26.1777V6.23674H20.1777ZM27.0141 -1.84227L21.0564 4.11542L25.2991 8.35806L31.2567 2.40037L27.0141 -1.84227ZM41.7204 -2.72095H29.1354V3.27905H41.7204V-2.72095ZM44.7204 13.3913V0.279053H38.7204V13.3913H44.7204ZM38.4113 20.943L43.8417 15.5126L39.599 11.2699L34.1686 16.7004L38.4113 20.943ZM23.1777 21.8217H36.29V15.8217H23.1777V21.8217Z" fill="white" mask="url(#path-3-inside-1_216_974)"/>
<mask id="path-5-inside-2_216_974" fill="white">
<path fill-rule="evenodd" clip-rule="evenodd" d="M41.7204 23.4568H23.1777V41.9994H36.2899L41.7204 36.569V23.4568Z"/>
</mask>
<path d="M23.1777 23.4568V20.4568H20.1777V23.4568H23.1777ZM41.7204 23.4568H44.7204V20.4568H41.7204V23.4568ZM23.1777 41.9994H20.1777V44.9994H23.1777V41.9994ZM36.2899 41.9994V44.9994H37.5326L38.4113 44.1207L36.2899 41.9994ZM41.7204 36.569L43.8417 38.6903L44.7204 37.8116V36.569H41.7204ZM23.1777 26.4568H41.7204V20.4568H23.1777V26.4568ZM26.1777 41.9994V23.4568H20.1777V41.9994H26.1777ZM36.2899 38.9994H23.1777V44.9994H36.2899V38.9994ZM38.4113 44.1207L43.8417 38.6903L39.599 34.4477L34.1686 39.8781L38.4113 44.1207ZM38.7204 23.4568V36.569H44.7204V23.4568H38.7204Z" fill="white" mask="url(#path-5-inside-2_216_974)"/>
</svg>
