<svg width="46" height="45" viewBox="0 0 46 45" fill="none" xmlns="http://www.w3.org/2000/svg">
<path fill-rule="evenodd" clip-rule="evenodd" d="M23 0C10.2925 0 0 10.3234 0 23.0691C0 33.2772 6.58375 41.8993 15.7262 44.9559C16.8762 45.1578 17.3075 44.4657 17.3075 43.8601C17.3075 43.3123 17.2787 41.4956 17.2787 39.5635C11.5 40.6305 10.005 38.1505 9.545 36.8529C9.28625 36.1897 8.165 34.1423 7.1875 33.5944C6.3825 33.1618 5.2325 32.0949 7.15875 32.0661C8.97 32.0372 10.2638 33.7386 10.695 34.4306C12.765 37.9198 16.0712 36.9394 17.3937 36.3338C17.595 34.8344 18.1987 33.8251 18.86 33.2484C13.7425 32.6716 8.395 30.6819 8.395 21.858C8.395 19.3492 9.28625 17.273 10.7525 15.6582C10.5225 15.0814 9.7175 12.7168 10.9825 9.54484C10.9825 9.54484 12.9087 8.93928 17.3075 11.9094C19.1475 11.3904 21.1025 11.1308 23.0575 11.1308C25.0125 11.1308 26.9675 11.3904 28.8075 11.9094C33.2062 8.91044 35.1325 9.54484 35.1325 9.54484C36.3975 12.7168 35.5925 15.0814 35.3625 15.6582C36.8288 17.273 37.72 19.3204 37.72 21.858C37.72 30.7108 32.3438 32.6716 27.2262 33.2484C28.06 33.9693 28.7787 35.3534 28.7787 37.5161C28.7787 40.6016 28.75 43.0816 28.75 43.8601C28.75 44.4657 29.1812 45.1866 30.3312 44.9559C34.8971 43.4098 38.8646 40.4665 41.6754 36.5403C44.4861 32.6141 45.9986 27.9026 46 23.0691C46 10.3234 35.7075 0 23 0Z" fill="#333947"/>
</svg>
