<svg width="50" height="37" viewBox="0 0 50 37" fill="none" xmlns="http://www.w3.org/2000/svg">
<path d="M50 5.05415V33.6361C50 35.4937 48.475 36.9979 46.5917 36.9979H38.6354V17.9447L25 28.0344L11.3646 17.9447V37H3.40833C2.96057 37 2.51719 36.913 2.10354 36.7439C1.68989 36.5748 1.31406 36.327 0.997541 36.0146C0.681021 35.7022 0.430009 35.3314 0.258846 34.9232C0.0876841 34.5151 -0.000273058 34.0777 6.36774e-07 33.6361V5.05415C6.36774e-07 0.897038 4.81042 -1.4764 8.18125 1.01828L11.3646 3.37528L25 13.4608L38.6354 3.37117L41.8187 1.01828C45.1875 -1.47434 50 0.897038 50 5.05415Z" fill="white"/>
</svg>
