<svg width="50" height="17" viewBox="0 0 50 17" fill="none" xmlns="http://www.w3.org/2000/svg">
<path d="M50 2.2551V1.38776H31.2069V1.04082C31.3793 1.04082 31.7241 0.867347 31.7241 0.520408C31.7241 0.173469 31.5517 0 31.2069 0H28.6207C28.2759 0 28.1034 0.173469 28.1034 0.520408C28.1034 0.867347 28.2759 1.04082 28.6207 1.04082V1.38776H10V2.2551H29.4828V3.9898H28.9655C28.7931 3.9898 28.6207 4.16327 28.6207 4.33673C28.6207 4.5102 28.6207 4.5102 28.7931 4.5102V5.72449H10V6.59184H28.7931V7.80612L28.6207 7.97959C28.6207 8.15306 28.7931 8.32653 28.9655 8.32653H29.4828V9.19388H25L8.10345 10.9286L4.31034 9.36735L2.24138 3.46939H0.517241L0 11.9694L25.8621 17H43.2759L47.931 16.3061L49.4828 13.8776L42.5862 12.6633L39.8276 10.0612L34.6552 9.19388H30.3448V8.5H31.0345C31.2069 8.5 31.3793 8.32653 31.3793 8.15306C31.3793 7.97959 31.3793 7.97959 31.2069 7.97959V6.76531H50V5.89796H31.2069V4.5102L31.3793 4.33673C31.3793 4.16327 31.2069 3.9898 31.0345 3.9898H30.5172V2.2551H50Z" fill="#525968"/>
</svg>
