<svg width="20" height="20" viewBox="0 0 20 20" fill="none" xmlns="http://www.w3.org/2000/svg">
<path d="M19.8165 16.0669L13.7496 10L19.8165 3.93311C19.9328 3.81544 19.9979 3.65669 19.9979 3.49128C19.9979 3.32587 19.9328 3.16713 19.8165 3.04945L16.9505 0.183492C16.8926 0.125332 16.8237 0.0791849 16.7479 0.0476969C16.6721 0.0162089 16.5908 0 16.5087 0C16.4266 0 16.3453 0.0162089 16.2695 0.0476969C16.1937 0.0791849 16.1248 0.125332 16.0669 0.183492L10 6.25038L3.93311 0.183492C3.81592 0.0663347 3.65699 0.000519221 3.49128 0.000519221C3.32557 0.000519221 3.16665 0.0663347 3.04945 0.183492L0.183492 3.04945C0.125332 3.1074 0.0791849 3.17625 0.0476969 3.25207C0.0162089 3.32789 0 3.40918 0 3.49128C0 3.57338 0.0162089 3.65467 0.0476969 3.73049C0.0791849 3.80631 0.125332 3.87517 0.183492 3.93311L6.25038 10L0.183492 16.0669C0.0663347 16.1841 0.000519221 16.343 0.000519221 16.5087C0.000519221 16.6744 0.0663347 16.8334 0.183492 16.9505L3.04945 19.8165C3.1074 19.8747 3.17625 19.9208 3.25207 19.9523C3.32789 19.9838 3.40918 20 3.49128 20C3.57338 20 3.65467 19.9838 3.73049 19.9523C3.80631 19.9208 3.87517 19.8747 3.93311 19.8165L10 13.7496L16.0669 19.8165C16.1841 19.9337 16.343 19.9995 16.5087 19.9995C16.6744 19.9995 16.8334 19.9337 16.9505 19.8165L19.8165 16.9505C19.8747 16.8926 19.9208 16.8237 19.9523 16.7479C19.9838 16.6721 20 16.5908 20 16.5087C20 16.4266 19.9838 16.3453 19.9523 16.2695C19.9208 16.1937 19.8747 16.1248 19.8165 16.0669V16.0669Z" fill="white"/>
</svg>
