<svg width="48" height="43" viewBox="0 0 48 43" fill="none" xmlns="http://www.w3.org/2000/svg">
<path fill-rule="evenodd" clip-rule="evenodd" d="M25.0968 43C27.5621 43 29.5792 41.0154 29.5792 38.5897H20.6144C20.6144 39.7594 21.0867 40.8812 21.9273 41.7083C22.7679 42.5353 23.908 43 25.0968 43ZM38.544 29.7692V17.6682L9.51367 34.4289L10.3274 36.3846H39.8439L41.4351 32.6138L38.544 29.7692ZM11.6497 24.1098L35.1273 10.555L28.4586 4.80718V3.30769C28.4586 1.47744 26.957 0 25.0968 0C23.2366 0 21.735 1.47744 21.735 3.30769V4.80718L11.6497 13.5V24.1098ZM45.0333 4.83594L0 30.8359L1.97503 34.2568L47.0084 8.2568L45.0333 4.83594Z" fill="#9DA5B6"/>
</svg>
