<svg width="29" height="29" viewBox="0 0 29 29" fill="none" xmlns="http://www.w3.org/2000/svg">
<path d="M2.56174 0C4.17839 0.852699 6.04381 1.70527 7.66046 2.55797C9.15277 3.2888 10.5208 3.89776 11.8886 4.75059C12.0129 4.87246 12.2617 4.87233 12.3861 4.9942C12.3861 4.9942 12.5104 5.11607 12.6348 4.99407C13.2571 4.38408 13.8794 3.77409 14.5017 3.1641C14.7506 2.9201 15.124 2.55411 15.4973 2.43198C15.7047 2.22862 16.0266 2.21889 16.2436 2.43159C16.4923 2.67533 16.7409 2.91907 16.9896 3.16281C17.2382 3.40655 17.2381 3.65041 17.1135 4.01628C16.7401 4.38228 16.6155 4.74814 16.2422 5.11413C15.7443 5.60213 15.371 5.96812 14.8731 6.45611C14.7487 6.57811 14.7487 6.57811 14.9975 6.57798C15.868 6.94333 16.6141 7.43068 17.4846 7.79603C17.4846 7.79603 17.609 7.9179 17.7334 7.79591C18.2313 7.30791 18.9779 6.81979 19.6 6.45367C20.72 5.59955 22.0888 4.74531 23.3331 4.01306C23.9553 3.64694 24.453 3.40281 25.075 3.28055C25.3238 3.28042 25.4483 3.15843 25.697 3.1583C25.9458 3.15817 26.0702 3.28004 26.07 3.52391C26.0699 3.76778 26.0698 4.01164 26.0696 4.25551C25.9449 4.86524 25.6959 5.35311 25.4468 5.84097C24.9487 6.8167 24.2018 7.79256 23.455 8.76841C22.957 9.50027 22.4592 9.98826 21.9612 10.7201C21.7123 10.9641 21.5878 11.0861 21.4632 11.452C21.4632 11.452 21.3388 11.574 21.4631 11.6959C21.8358 12.5492 22.333 13.2805 22.5814 14.012L22.7057 14.1339C23.0791 13.7679 23.5769 13.2799 23.9503 12.9139C24.1992 12.6699 24.5726 12.3039 24.9458 12.1818C25.1575 11.9743 25.7081 11.953 25.941 12.1813C26.1896 12.425 26.4383 12.6687 26.6869 12.9125C26.9356 13.1562 26.9355 13.4001 26.8109 13.766C26.5619 14.01 26.5618 14.2538 26.3129 14.4978C26.3129 14.4978 26.3129 14.4978 26.1884 14.6198C25.4417 15.3518 24.6949 16.0838 23.9482 16.8158C23.8237 16.9378 23.8237 16.9378 23.9481 17.0597C24.9422 19.0101 26.0606 21.0824 27.0547 23.0328C27.6759 24.3737 28.4216 25.5927 28.9185 26.8118C29.0427 27.1775 29.0426 27.4214 28.7937 27.6654L28.6692 27.7874C28.5447 27.9094 28.5447 27.9094 28.4203 28.0314C28.0469 28.3974 27.6737 28.5195 27.176 28.7636C27.0515 28.8856 26.9272 28.7637 26.6784 28.7639L26.5541 28.642C24.0891 26.2258 22.3005 23.2525 19.8411 20.8417C19.8411 20.8417 19.7167 20.7199 19.5923 20.8419C19.2189 21.2078 18.97 21.4518 18.4723 21.696C18.2234 21.94 17.8503 21.8182 17.6016 21.5745C17.353 21.3307 17.1043 21.087 16.8556 20.8433C16.607 20.5995 16.6071 20.3557 16.856 20.1117C17.105 19.8677 17.2296 19.5018 17.354 19.3798C17.4785 19.2578 17.4785 19.2578 17.3541 19.1359C16.608 18.6486 15.7376 18.0394 14.9915 17.552C14.8672 17.4302 14.8672 17.4302 14.7428 17.5522C12.9493 19.3102 10.8069 20.5509 8.64522 21.823C8.14751 22.0671 7.64968 22.5551 7.15198 22.7992L7.02752 22.9212C7.77309 24.3841 8.26987 25.847 8.76665 27.3099C8.76652 27.5538 8.76639 27.7977 8.76626 28.0415C8.64167 28.4074 8.14397 28.6515 7.89505 28.8955C7.64613 29.1395 7.39748 28.8958 7.27315 28.7739C6.23709 27.7583 5.20104 26.7428 4.16498 25.7272C4.16511 25.4833 4.16511 25.4833 4.16524 25.2395C3.79187 25.6054 3.29417 25.8496 2.92079 26.2156C3.16971 25.9716 3.2943 25.6057 3.54322 25.3617C3.66767 25.2397 3.79213 25.1177 3.79213 25.1177C3.61179 25.1178 3.16066 25.2307 3.04578 25.1181C2.79712 24.8744 2.54847 24.6306 2.29982 24.3869C1.54625 23.6482 0.944957 22.8148 0.186391 22.0712C-0.0622626 21.8275 -0.0621299 21.5836 0.186787 21.3396L0.311245 21.2176C0.560162 20.9736 0.684751 20.6078 1.05799 20.4857C1.18245 20.3637 1.43124 20.3635 1.68002 20.3634C2.79936 20.7286 3.91869 21.0938 5.16236 21.5809C5.53547 21.7027 5.90858 21.8244 6.28169 21.9461C6.28169 21.9461 6.28169 21.9461 6.40615 21.8242C6.77966 21.2143 7.15303 20.8483 7.52654 20.2384C8.0245 19.5066 8.52233 19.0186 9.0203 18.2867C9.64272 17.4329 10.2651 16.579 10.8876 15.7251C11.3855 14.9933 12.0078 14.3833 12.3813 13.7734C12.3813 13.7734 12.5058 13.6514 12.3815 13.5296C11.9148 12.7668 11.2867 11.7244 10.6413 11.0918C10.3924 11.3358 10.0191 11.4579 9.7702 11.7019C9.52129 11.9459 9.14818 11.8242 9.02385 11.7023C8.7752 11.4586 8.52654 11.2148 8.27789 10.9711C8.15356 10.8492 8.15356 10.8492 8.15369 10.6053C8.02936 10.4835 8.15382 10.3615 8.27828 10.2395C8.5272 9.99548 8.77625 9.50762 9.02516 9.26362L9.14962 9.14162L9.02529 9.01975C6.70031 6.74072 3.80074 5.11845 1.56502 2.92693C1.4407 2.80506 1.19204 2.56132 1.06772 2.43945C0.819064 2.19571 0.819195 1.95184 0.943653 1.82984C1.57814 0.6057 2.09718 0.455378 2.56174 0Z" fill="#525968"/>
</svg>
