<svg width="27" height="31" viewBox="0 0 27 31" fill="none" xmlns="http://www.w3.org/2000/svg">
<path fill-rule="evenodd" clip-rule="evenodd" d="M13.5 0C12.1693 0 9.94565 0.513438 7.85315 1.085C5.71243 1.66625 3.55436 2.35406 2.28537 2.77062C1.7548 2.94665 1.28442 3.26946 0.928264 3.70198C0.572107 4.1345 0.344621 4.65918 0.271939 5.21575C-0.877489 13.8899 1.78972 20.3186 5.02586 24.5714C6.3982 26.3906 8.03449 27.9927 9.88007 29.3241C10.6245 29.853 11.3149 30.2579 11.9012 30.535C12.4412 30.7908 13.0217 31 13.5 31C13.9783 31 14.5569 30.7908 15.0988 30.535C15.8056 30.1899 16.4817 29.7848 17.1199 29.3241C18.9656 27.9927 20.6018 26.3906 21.9741 24.5714C25.2103 20.3186 27.8775 13.8899 26.7281 5.21575C26.6555 4.65891 26.4281 4.13393 26.0719 3.70108C25.7158 3.26822 25.2453 2.94506 24.7146 2.76869C22.8725 2.16189 21.016 1.59985 19.1469 1.08306C17.0544 0.515375 14.8307 0 13.5 0ZM13.5 9.6875C14.1832 9.68648 14.8447 9.92839 15.3673 10.3704C15.89 10.8124 16.24 11.426 16.3555 12.1024C16.471 12.7789 16.3445 13.4746 15.9983 14.0663C15.6522 14.658 15.1087 15.1076 14.4643 15.3353L15.2068 19.1909C15.2338 19.3312 15.2296 19.4757 15.1945 19.6141C15.1594 19.7525 15.0943 19.8814 15.0038 19.9916C14.9133 20.1018 14.7997 20.1905 14.6711 20.2513C14.5425 20.3122 14.402 20.3438 14.2599 20.3438H12.7401C12.5981 20.3435 12.4579 20.3117 12.3295 20.2507C12.2012 20.1897 12.0878 20.101 11.9975 19.9908C11.9072 19.8807 11.8423 19.7519 11.8073 19.6136C11.7723 19.4753 11.7682 19.331 11.7951 19.1909L12.5357 15.3353C11.8913 15.1076 11.3478 14.658 11.0017 14.0663C10.6555 13.4746 10.529 12.7789 10.6445 12.1024C10.76 11.426 11.11 10.8124 11.6327 10.3704C12.1553 9.92839 12.8168 9.68648 13.5 9.6875Z" fill="#9DA5B6"/>
</svg>
