<svg width="28" height="31" viewBox="0 0 28 31" fill="none" xmlns="http://www.w3.org/2000/svg">
<path d="M14.0001 21.6184C16.523 21.6184 18.5295 19.5372 18.5295 16.9276C18.5295 14.318 16.523 12.2368 14.0001 12.2368C11.4772 12.2368 9.4707 14.318 9.4707 16.9276C9.4707 19.5372 11.4772 21.6184 14.0001 21.6184Z" fill="#9DA5B6"/>
<path d="M27.7153 14.2383C27.3488 12.4532 26.6325 10.7577 25.6075 9.24884C24.6004 7.76438 23.3173 6.48585 21.8275 5.48235C20.313 4.4614 18.6115 3.74773 16.8202 3.3821C15.8792 3.19196 14.9212 3.09847 13.9611 3.1031V0L7.77777 4.65L13.9611 9.29999V6.20309C14.714 6.2 15.4669 6.2713 16.1933 6.42009C17.5856 6.70438 18.908 7.25897 20.0853 8.05224C21.2463 8.83227 22.2456 9.82796 23.0284 10.9848C24.2438 12.7754 24.8919 14.8883 24.8889 17.05C24.8886 18.5006 24.5977 19.9366 24.0333 21.2737C23.7588 21.9178 23.4234 22.5344 23.0315 23.1151C22.6382 23.6923 22.1913 24.2315 21.6969 24.7256C20.1911 26.2232 18.2795 27.2504 16.1964 27.6814C14.7478 27.9728 13.2553 27.9728 11.8067 27.6814C10.4137 27.3969 9.09072 26.8417 7.91311 26.0477C6.75342 25.2684 5.75523 24.2738 4.97311 23.1182C3.75908 21.3257 3.11065 19.2125 3.11111 17.05H0C0.00165538 19.8302 0.835156 22.5468 2.394 24.8527C3.40176 26.3347 4.68356 27.6119 6.17088 28.6161C8.48185 30.1746 11.2095 31.0051 14 31C14.9477 30.9999 15.8931 30.9049 16.8218 30.7163C18.6118 30.348 20.3123 29.6346 21.8275 28.6161C22.5715 28.1166 23.2649 27.546 23.898 26.9126C24.5319 26.2793 25.1048 25.588 25.6091 24.848C27.1718 22.5459 28.0048 19.8293 28 17.05C27.9999 16.1056 27.9045 15.1636 27.7153 14.2383Z" fill="#9DA5B6"/>
</svg>
