<svg width="43" height="45" viewBox="0 0 43 45" fill="none" xmlns="http://www.w3.org/2000/svg">
<path d="M7.87385 29.1919C9.83796 29.186 11.7278 28.4404 13.1667 27.1035L27.224 35.1359C26.753 36.9764 26.9606 38.9249 27.8089 40.6249C28.6571 42.3248 30.0892 43.6623 31.8431 44.3926C33.5969 45.1229 35.555 45.1972 37.3591 44.6017C39.1632 44.0063 40.6924 42.781 41.667 41.1502C42.6415 39.5193 42.996 37.5921 42.6657 35.7212C42.3354 33.8504 41.3423 32.1611 39.8682 30.9626C38.3942 29.764 36.5378 29.1365 34.6389 29.1949C32.74 29.2532 30.9256 29.9935 29.5279 31.2803L15.4706 23.2478C15.6188 22.6864 15.6997 22.1048 15.7132 21.5232L29.5235 13.63C30.8532 14.8399 32.5586 15.5556 34.3536 15.6571C36.1485 15.7587 37.9237 15.2398 39.3815 14.1876C40.8392 13.1354 41.8907 11.6139 42.3596 9.87838C42.8286 8.14282 42.6863 6.29879 41.9568 4.65565C41.2273 3.01251 39.9549 1.67024 38.3531 0.854029C36.7513 0.0378131 34.9175 -0.202689 33.1593 0.172869C31.4012 0.548427 29.8257 1.5172 28.6972 2.91665C27.5687 4.31611 26.9557 6.0611 26.9613 7.85889C26.9702 8.50562 27.0578 9.1501 27.224 9.77437L14.4601 17.0658C13.7199 15.9206 12.6946 14.9878 11.4848 14.3589C10.275 13.7299 8.92239 13.4266 7.55987 13.4786C6.19735 13.5305 4.8718 13.9361 3.71344 14.6554C2.55509 15.3747 1.60378 16.3829 0.952997 17.5811C0.302209 18.7793 -0.0256714 20.1261 0.00156897 21.4894C0.0288093 22.8526 0.410234 24.1853 1.10837 25.3565C1.8065 26.5278 2.79732 27.4972 3.98349 28.1696C5.16965 28.8421 6.51035 29.1944 7.87385 29.1919Z" fill="white"/>
</svg>
