<svg width="57" height="14" viewBox="0 0 57 14" fill="none" xmlns="http://www.w3.org/2000/svg">
<path d="M46.5828 7.90323V7.2258H43.831V6.99998H43.0448V8.35484L40.8828 8.58066V6.99998H38.131V8.58066H36.1655V6.7742V4.96774H35.5759V3.61288H34.9862V4.96774H31.8414V4.29031H32.431V3.61288H31.8414V2.93549H32.431V1.80646H31.8414V0H30.6621V1.80646H30.0724V2.93549H30.6621V3.61288H30.0724V4.29031H30.6621V4.96774H29.8759V6.7742H29.2862V5.41934H28.5L27.3207 0H25.3552L26.5345 5.41934H23.9793V6.7742H22.8V5.64516H22.0138L20.8345 0H18.869L20.2448 5.64516H18.4759V4.96774H17.2966V6.7742H16.3138V8.58066H14.7414V6.7742H11.9897V8.58066H9.82759V8.80644H4.12759L0 8.12902L1.37586 11.0645L4.91379 14H54.4448L57 6.99998L46.5828 7.90323Z" fill="#525968"/>
</svg>
