<svg width="29" height="29" viewBox="0 0 29 29" fill="none" xmlns="http://www.w3.org/2000/svg">
<g clip-path="url(#clip0_1119_2318)">
<path d="M29 7.24998V5.50853C29.0002 5.35633 28.9704 5.20559 28.9122 5.06494C28.854 4.9243 28.7687 4.7965 28.6611 4.68888C28.5535 4.58126 28.4257 4.49593 28.285 4.43778C28.1444 4.37962 27.9936 4.34979 27.8414 4.34998H1.16145C1.00912 4.34979 0.858238 4.3796 0.717428 4.43772C0.576617 4.49584 0.448633 4.58113 0.340782 4.68871C0.232931 4.79629 0.147327 4.92406 0.0888553 5.06472C0.030384 5.20539 0.000191205 5.35619 9.07467e-07 5.50853V7.24998H2.9V10.15H9.07467e-07V13.05H2.9V15.95H9.07467e-07V18.85H2.9V21.75H9.07467e-07V23.4885C-0.000189934 23.6411 0.0297216 23.7922 0.0880223 23.9332C0.146323 24.0742 0.231868 24.2023 0.339756 24.3102C0.447645 24.4181 0.575758 24.5037 0.716757 24.562C0.857757 24.6203 1.00887 24.6502 1.16145 24.65H27.8414C27.9938 24.6498 28.1446 24.6196 28.2853 24.5611C28.4259 24.5027 28.5537 24.417 28.6613 24.3092C28.7689 24.2013 28.8541 24.0734 28.9123 23.9326C28.9704 23.7917 29.0002 23.6409 29 23.4885V21.75H26.1V18.85H29V15.95H26.1V13.05H29V10.15H26.1V7.24998H29V7.24998ZM11.6 18.85V10.15L18.85 14.5L11.6 18.85Z" fill="white"/>
</g>
<defs>
<clipPath id="clip0_1119_2318">
<rect width="29" height="29" fill="white"/>
</clipPath>
</defs>
</svg>
